/* XPM */
static char * C:\Users\gaeta\Desktop\code\42\cub3d\img\Coal_xpm[] = {
"64 64 63 1",
" 	c None",
".	c #757575",
"+	c #6C6C6C",
"@	c #636363",
"#	c #515151",
"$	c #4F4F4F",
"%	c #535353",
"&	c #555555",
"*	c #4A4A4A",
"=	c #525252",
"-	c #5E5E5E",
";	c #4D4D4D",
">	c #444444",
",	c #424242",
"'	c #3E3E3E",
")	c #3B3B3B",
"!	c #484848",
"~	c #575757",
"{	c #5B5B5B",
"]	c #4C4C4C",
"^	c #464646",
"/	c #4B4B4B",
"(	c #585858",
"_	c #606060",
":	c #7A7A7A",
"<	c #5A5A5A",
"[	c #4E4E4E",
"}	c #545454",
"|	c #565656",
"1	c #505050",
"2	c #454545",
"3	c #3F3F3F",
"4	c #414141",
"5	c #626262",
"6	c #494949",
"7	c #474747",
"8	c #434343",
"9	c #404040",
"0	c #6E6E6E",
"a	c #5F5F5F",
"b	c #6F6F6F",
"c	c #656565",
"d	c #5C5C5C",
"e	c #616161",
"f	c #666666",
"g	c #7D7D7D",
"h	c #5D5D5D",
"i	c #696969",
"j	c #595959",
"k	c #717171",
"l	c #6A6A6A",
"m	c #707070",
"n	c #777777",
"o	c #3C3C3C",
"p	c #646464",
"q	c #767676",
"r	c #686868",
"s	c #787878",
"t	c #6B6B6B",
"u	c #737373",
"v	c #676767",
"w	c #747474",
"x	c #7F7F7F",
".+@#$#%%#&&$*=-$;;;;*>>,')'!;;~%{#&~&&%%#;]*;;]^/(^**!*];$$#$#_:",
"_<=#[$$#%}=[/[|1]**!2333442*[];5(&%#[$$&|1/6]/7889^*]!**;];]**<0",
"#1$]];$$$$1[[[1[**6^,48,8>7///;|&%[]*;#&}]**[!8,^!*];;;;$$;!7!1@",
"&1]!*]]*]]$;;][*!6!2,>^7!6!***[&&;6*!/][[*6!67>^!*]][$#$$]6^!6[%",
"%;*^!****]$;]*61*]6^26666!7!6%~#%;***//]]66^!66]]]]];#}}1;/6/]=&",
"$;]6]*]/1=#;]/;[(|;/*a!!7^^7*/5b$*76***;$;62,76;6!*[##$;**/]]1=&",
";]]*!7]1==;;];;#|$$$;*!!^>,7][|c.!7*];$##;6!6;;[]*/[[$1[];1}#=1#",
"]]*^>^]1#$/**;/]]][]*6!6^^!;===<0>26/;[##[/;[[]=*/;[]d];6$1}1#$;",
";}ee9!*$;]666f5/#=~/!7!!!/]$=11[d!6///;#=$$##$[$$1%gcd=$][1}#;;*",
"$*#_a>!;1]*^{a/!][1__[!6!//;[;]*]!6]*//1=%=#;];%|&|h}#[[!/[1;/$;",
";*7[%h1;1/72(]!6[$/=-5!*6*!6*;]**!!!6];1#%}$/]#~|#_e;=[]!/1=$]/;",
"*!8>*#fi=*2;;66;=;!71~1!66^**]6^!^!!6][$1##;;1}}#[;d&;**6]1[]*6]",
"!7!6!/jbk*##7*;#%/7!;1&*]/**/]6^!!*276]]$1[;$=#1;/!/#ec6!]11]67!",
";][]66=h;6$>*6[##]6*;/$[1]66//6^***^2^!!=&$$1[;;1;*^6~lm6/[[[//*",
"&}(%1]6|]]$!;[1=%1;/];1=#/!6]//!;*!1;^6*][1=1**;#]282[{l!;##$/[$",
"~&|}[]*;][$$111}}%[]|;1$]!!/]/*]$]6$jd&;;$#=[*/[$[]777;<*[$$##=%",
"&}=1]]*]/;$11==|}}$]|j;;78!6//[##;]!]=_5$1%%1]/;;[;/77%**h<$;[1%",
";];]*!!}][1=11=&}#[/]d~62,^!]1}&$;**6/#a[#}#;*]]/!7^2276;h~]*$1$",
"*!]!*7!$}~;$$=}&}$;/;|+*227]=}=;!*];6!$-;#==1[;/*67^827*h{%//]]]",
"^^;//^2^[|6;;=}}%//6;}fn*][}}=;^,^*]!!]|$=[$/;;]66!!]|d*h|$*d_]!",
"^7***^>>[&6][=#1[/!6/=e.!/1}1]^99>]]]/[[$#;&*;//666/$=j_d%;]<d1!",
"^6$]6,>76=;$%#$*]66^^^(c56[~(*!,>>]]]]][[=$16//*666*$%{@=!a;$}/!",
"*;1/!>!*;1&}~&]^662>>8/(8^**~7>99,7]];*;/;/**66^76;[|j}/&{e</;6*",
"$%|;62*][#{~~#;!;*78^,'3^]**]]^99>!;;$]]*]*6[66]>^//>>/*1#&&~77]",
"%}=]!!*]$=%|-(*^]!78724,6]]!]*^9o,^[;#;;]]6de1^^^>^6,7**!7/!||/$",
"&%[!^7*[1#$##==_-#*^!>>^]]]*;*>''^]#;]]];/[d$[]*79,2^!6!7^!*$@$%",
"#$6^76]$}=$*!*6p$][]/76/[]1-!>,'96#&$;]]*^j[][/^>8^777!*6*6/1@q%",
";]^7*/;=(=;6**}h;$%&1/**;*7}e''9!#&&#/*!^6|/[;6227*!^!6//*66;<rs",
"_^^/;$#=%;alt=$$$[#%[/!;$]!]5&6]#&~|=]!^!~@51*227672>!6/66#^/=au",
"e^*]/[1=$~aflrpa&76[]*7;$;/71ve%%#%=]^>^*[=e_}6][/67/[;][}~%[#*%",
">!;[;=#$//1}||}}5c[7^^!;$;[[}{w~#;#1/!*/]1}=}fi[;]];1[;]6]];]=/^",
"^$##$#;$;$]*]$$]}d,^^>*]$;$#&jrx;]##]];$;%&#;<0c;;$##;]*^822;~a}",
"{#&~&&%%#;]*;;]^/(^**!*];$$#$#_:.+@#$#%%#&&$*=-$;;;;*>>,')'!;;~%",
"(&%#[$$&|1/6]/7889^*]!**;];]**<0_<=#[$$#%}=[/[|1]**!2333442*[];5",
"&%[]*;#&}]**[!8,^!*];;;;$$;!7!1@#1$]];$$$$1[[[1[**6^,48,8>7///;|",
"&;6*!/][[*6!67>^!*]][$#$$]6^!6[%&1]!*]]*]]$;;][*!6!2,>^7!6!***[&",
"%;***//]]66^!66]]]]];#}}1;/6/]=&%;*^!****]$;]*61*]6^26666!7!6%~#",
"$*76***;$;62,76;6!*[##$;**/]]1=&$;]6]*]/1=#;]/;[(|;/*a!!7^^7*/5b",
".!7*];$##;6!6;;[]*/[[$1[];1}#=1#;]]*!7]1==;;];;#|$$$;*!!^>,7][|c",
"0>26/;[##[/;[[]=*/;[]d];6$1}1#$;]]*^>^]1#$/**;/]]][]*6!6^^!;===<",
"d!6///;#=$$##$[$$1%gcd=$][1}#;;*;}ee9!*$;]666f5/#=~/!7!!!/]$=11[",
"]!6]*//1=%=#;];%|&|h}#[[!/[1;/$;$*#_a>!;1]*^{a/!][1__[!6!//;[;]*",
"*!!!6];1#%}$/]#~|#_e;=[]!/1=$]/;;*7[%h1;1/72(]!6[$/=-5!*6*!6*;]*",
"!^!!6][$1##;;1}}#[;d&;**6]1[]*6]*!8>*#fi=*2;;66;=;!71~1!66^**]6^",
"!!*276]]$1[;$=#1;/!/#ec6!]11]67!!7!6!/jbk*##7*;#%/7!;1&*]/**/]6^",
"***^2^!!=&$$1[;;1;*^6~lm6/[[[//*;][]66=h;6$>*6[##]6*;/$[1]66//6^",
";*!1;^6*][1=1**;#]282[{l!;##$/[$&}(%1]6|]]$!;[1=%1;/];1=#/!6]//!",
"$]6$jd&;;$#=[*/[$[]777;<*[$$##=%~&|}[]*;][$$111}}%[]|;1$]!!/]/*]",
"#;]!]=_5$1%%1]/;;[;/77%**h<$;[1%&}=1]]*]/;$11==|}}$]|j;;78!6//[#",
"$;**6/#a[#}#;*]]/!7^2276;h~]*$1$;];]*!!}][1=11=&}#[/]d~62,^!]1}&",
"!*];6!$-;#==1[;/*67^827*h{%//]]]*!]!*7!$}~;$$=}&}$;/;|+*227]=}=;",
",^*]!!]|$=[$/;;]66!!]|d*h|$*d_]!^^;//^2^[|6;;=}}%//6;}fn*][}}=;^",
"9>]]]/[[$#;&*;//666/$=j_d%;]<d1!^7***^>>[&6][=#1[/!6/=e.!/1}1]^9",
">>]]]]][[=$16//*666*$%{@=!a;$}/!^6$]6,>76=;$%#$*]66^^^(c56[~(*!,",
"9,7]];*;/;/**66^76;[|j}/&{e</;6**;1/!>!*;1&}~&]^662>>8/(8^**~7>9",
"9>!;;$]]*]*6[66]>^//>>/*1#&&~77]$%|;62*][#{~~#;!;*78^,'3^]**]]^9",
"o,^[;#;;]]6de1^^^>^6,7**!7/!||/$%}=]!!*]$=%|-(*^]!78724,6]]!]*^9",
"'^]#;]]];/[d$[]*79,2^!6!7^!*$@$%&%[!^7*[1#$##==_-#*^!>>^]]]*;*>'",
"96#&$;]]*^j[][/^>8^777!*6*6/1@q%#$6^76]$}=$*!*6p$][]/76/[]1-!>,'",
"!#&&#/*!^6|/[;6227*!^!6//*66;<rs;]^7*/;=(=;6**}h;$%&1/**;*7}e''9",
"#&~|=]!^!~@51*227672>!6/66#^/=au_^^/;$#=%;alt=$$$[#%[/!;$]!]5&6]",
"%#%=]^>^*[=e_}6][/67/[;][}~%[#*%e^*]/[1=$~aflrpa&76[]*7;$;/71ve%",
"#;#1/!*/]1}=}fi[;]];1[;]6]];]=/^>!;[;=#$//1}||}}5c[7^^!;$;[[}{w~",
";]##]];$;%&#;<0c;;$##;]*^822;~a}^$##$#;$;$]*]$$]}d,^^>*]$;$#&jrx"};
