/* XPM */
static char * C:\Users\gaeta\Desktop\code\42\cub3d\img\ennemy_xpm[] = {
"64 64 424 2",
"  	c #FFFFFF",
". 	c #000000",
"+ 	c #253E20",
"@ 	c #314529",
"# 	c #4D5940",
"$ 	c #33462A",
"% 	c #294022",
"& 	c #536145",
"* 	c #576549",
"= 	c #454B37",
"- 	c #271718",
"; 	c #47513A",
"> 	c #2E4A27",
", 	c #314F2A",
"' 	c #3F5735",
") 	c #617051",
"! 	c #415937",
"~ 	c #35512D",
"{ 	c #627051",
"] 	c #697958",
"^ 	c #6E7F5C",
"/ 	c #575F46",
"( 	c #331F20",
"_ 	c #5B674B",
": 	c #4E5B41",
"< 	c #252C1E",
"[ 	c #395130",
"} 	c #3C5532",
"| 	c #465C3A",
"1 	c #4A5F3E",
"2 	c #3F5935",
"3 	c #415A37",
"4 	c #5C6C4D",
"5 	c #5B6C4C",
"6 	c #637453",
"7 	c #677956",
"8 	c #5B654A",
"9 	c #413C2F",
"0 	c #586248",
"a 	c #5D684C",
"b 	c #4E5940",
"c 	c #37402C",
"d 	c #6B7B59",
"e 	c #6C7D5A",
"f 	c #2F4E28",
"g 	c #6D7E5B",
"h 	c #4A4236",
"i 	c #3E2527",
"j 	c #4D4B3A",
"k 	c #343D2A",
"l 	c #38412E",
"m 	c #2F4E29",
"n 	c #353E2B",
"o 	c #4C5940",
"p 	c #49553E",
"q 	c #4A563F",
"r 	c #667656",
"s 	c #556A47",
"t 	c #566A48",
"u 	c #536146",
"v 	c #536046",
"w 	c #3F352D",
"x 	c #392224",
"y 	c #4E4E3C",
"z 	c #687857",
"A 	c #39432F",
"B 	c #2C3327",
"C 	c #1C211C",
"D 	c #1D221D",
"E 	c #212721",
"F 	c #617052",
"G 	c #6F805D",
"H 	c #252C24",
"I 	c #302120",
"J 	c #4E523E",
"K 	c #3D4732",
"L 	c #1D231D",
"M 	c #212821",
"N 	c #252D24",
"O 	c #195A1D",
"P 	c #0BAD20",
"Q 	c #1A611F",
"R 	c #1E231F",
"S 	c #272E25",
"T 	c #1E191F",
"U 	c #0CAB20",
"V 	c #15811E",
"W 	c #301F1F",
"X 	c #19591D",
"Y 	c #0CAC20",
"Z 	c #1D6121",
"` 	c #2A3127",
" .	c #4B5740",
"..	c #211E21",
"+.	c #0DAA20",
"@.	c #15801E",
"#.	c #2F3B27",
"$.	c #546646",
"%.	c #424E38",
"&.	c #3F4A36",
"*.	c #395E32",
"=.	c #138E1F",
"-.	c #1D511F",
";.	c #1F251F",
">.	c #293026",
",.	c #1F1F1F",
"'.	c #138D1F",
").	c #347630",
"!.	c #47533C",
"~.	c #4D523D",
"{.	c #1A2C15",
"].	c #5D6D4D",
"^.	c #586549",
"/.	c #262D23",
"(.	c #515E44",
"_.	c #192D15",
":.	c #304F2A",
"<.	c #191E1A",
"[.	c #242B22",
"}.	c #3D4832",
"|.	c #211613",
"1.	c #3D2B27",
"2.	c #3D2A27",
"3.	c #5D6A4D",
"4.	c #637253",
"5.	c #6A7A58",
"6.	c #6A7A59",
"7.	c #6B7C5A",
"8.	c #5F7250",
"9.	c #3A5531",
"0.	c #1D2E18",
"a.	c #221213",
"b.	c #3E2427",
"c.	c #5E6A4D",
"d.	c #647353",
"e.	c #5E714E",
"f.	c #182A14",
"g.	c #201B14",
"h.	c #3B3328",
"i.	c #3B3227",
"j.	c #565F46",
"k.	c #596449",
"l.	c #657454",
"m.	c #637152",
"n.	c #627152",
"o.	c #657153",
"p.	c #6A7858",
"q.	c #667855",
"r.	c #647653",
"s.	c #5A6E4C",
"t.	c #455D3A",
"u.	c #24331E",
"v.	c #332821",
"w.	c #403C2F",
"x.	c #3B3F2E",
"y.	c #251C18",
"z.	c #241C18",
"A.	c #595F47",
"B.	c #425A37",
"C.	c #4E6341",
"D.	c #FDFFFE",
"E.	c #FEFFFE",
"F.	c #152511",
"G.	c #132410",
"H.	c #545F45",
"I.	c #5A674B",
"J.	c #576448",
"K.	c #586449",
"L.	c #372423",
"M.	c #362122",
"N.	c #515640",
"O.	c #647454",
"P.	c #647553",
"Q.	c #576648",
"R.	c #363F2C",
"S.	c #5B694C",
"T.	c #352422",
"U.	c #4E533E",
"V.	c #6C7C5A",
"W.	c #59674A",
"X.	c #012802",
"Y.	c #013604",
"Z.	c #013504",
"`.	c #013204",
" +	c #59694B",
".+	c #5D6B4D",
"++	c #5D6B4E",
"@+	c #5D6C4E",
"#+	c #68775E",
"$+	c #6B7A62",
"%+	c #6A7A61",
"&+	c #69785E",
"*+	c #6E7D65",
"=+	c #6F7E66",
"-+	c #352624",
";+	c #322021",
">+	c #4B503C",
",+	c #677756",
"'+	c #697A58",
")+	c #626E57",
"!+	c #078817",
"~+	c #0CAD20",
"{+	c #0BA31E",
"]+	c #027811",
"^+	c #060508",
"/+	c #1F1F20",
"(+	c #9AAAAB",
"_+	c #AFC2C3",
":+	c #ACBEBF",
"<+	c #5F6E4D",
"[+	c #A6B4AF",
"}+	c #C3D2D2",
"|+	c #C4D3D4",
"1+	c #343636",
"2+	c #282928",
"3+	c #242424",
"4+	c #040206",
"5+	c #078717",
"6+	c #0BA21E",
"7+	c #067914",
"8+	c #0B0B0B",
"9+	c #212121",
"0+	c #99AAAB",
"a+	c #AEC1C2",
"b+	c #ABBEBE",
"c+	c #A5B4AE",
"d+	c #C2D1D1",
"e+	c #C4D3D3",
"f+	c #343635",
"g+	c #252525",
"h+	c #090909",
"i+	c #078216",
"j+	c #0BA61F",
"k+	c #0BA41E",
"l+	c #0A991C",
"m+	c #088718",
"n+	c #066D12",
"o+	c #036C10",
"p+	c #191919",
"q+	c #1B1B1B",
"r+	c #656C6C",
"s+	c #727B7B",
"t+	c #767F7E",
"u+	c #A8B7B2",
"v+	c #A8B6B1",
"w+	c #929B98",
"x+	c #828685",
"y+	c #828584",
"z+	c #A0ACAC",
"A+	c #A1ADAD",
"B+	c #798282",
"C+	c #262626",
"D+	c #1C1C1C",
"E+	c #067F15",
"F+	c #0BA01E",
"G+	c #0A941B",
"H+	c #0A8E1A",
"I+	c #098619",
"J+	c #098719",
"K+	c #2B1B18",
"L+	c #2E1914",
"M+	c #433B39",
"N+	c #868A8A",
"O+	c #3F221B",
"P+	c #390E00",
"Q+	c #C0CFCF",
"R+	c #919D9D",
"S+	c #222322",
"T+	c #0BA11E",
"U+	c #0A951B",
"V+	c #0A8F1A",
"W+	c #098819",
"X+	c #1E1E1F",
"Y+	c #260E07",
"Z+	c #270200",
"`+	c #3F3533",
" @	c #C5D4D4",
".@	c #C3D3D3",
"+@	c #868A89",
"@@	c #391001",
"#@	c #320000",
"$@	c #C1D0D0",
"%@	c #929D9E",
"&@	c #232323",
"*@	c #181718",
"=@	c #000200",
"-@	c #20261A",
";@	c #AABCBD",
">@	c #290900",
",@	c #2F1B16",
"'@	c #9EA9A8",
")@	c #718262",
"!@	c #556148",
"~@	c #0D0D0D",
"{@	c #434E37",
"]@	c #3E4833",
"^@	c #070707",
"/@	c #280400",
"(@	c #9EA9A9",
"_@	c #718261",
":@	c #399543",
"<@	c #057513",
"[@	c #056E11",
"}@	c #22381C",
"|@	c #21381C",
"1@	c #46513A",
"2@	c #455139",
"3@	c #445039",
"4@	c #455039",
"5@	c #14190F",
"6@	c #96A2A2",
"7@	c #B8C9CA",
"8@	c #B9CACB",
"9@	c #56624C",
"0@	c #525E45",
"a@	c #414A39",
"b@	c #333828",
"c@	c #565E45",
"d@	c #2F3324",
"e@	c #20361B",
"f@	c #304F29",
"g@	c #505D42",
"h@	c #8E9C9C",
"i@	c #AFC3C4",
"j@	c #2C2E2F",
"k@	c #1C0F10",
"l@	c #190D0E",
"m@	c #20351A",
"n@	c #270100",
"o@	c #2D1712",
"p@	c #B0C3C4",
"q@	c #2B2D2E",
"r@	c #202020",
"s@	c #0F1D0C",
"t@	c #0F1D0B",
"u@	c #647260",
"v@	c #72816D",
"w@	c #758473",
"x@	c #A3B4B5",
"y@	c #A2B3B4",
"z@	c #87978E",
"A@	c #70806B",
"B@	c #A1B2B3",
"C@	c #7A8787",
"D@	c #1B2B16",
"E@	c #314A29",
"F@	c #182713",
"G@	c #566348",
"H@	c #67765C",
"I@	c #86968B",
"J@	c #ADC0C0",
"K@	c #839191",
"L@	c #1B2F16",
"M@	c #090807",
"N@	c #1E1B1A",
"O@	c #464F39",
"P@	c #4F5A40",
"Q@	c #545F49",
"R@	c #8F9D9E",
"S@	c #8E9D9D",
"T@	c #6D7970",
"U@	c #4D583D",
"V@	c #8B9A9B",
"W@	c #8C9B9C",
"X@	c #6A7474",
"Y@	c #232120",
"Z@	c #0A0A09",
"`@	c #132310",
" #	c #070302",
".#	c #1A0F09",
"+#	c #1C110B",
"@#	c #322821",
"##	c #251B15",
"$#	c #060302",
"%#	c #040303",
"&#	c #100C0E",
"*#	c #100D0E",
"=#	c #1B1715",
"-#	c #1B1615",
";#	c #161213",
">#	c #120F12",
",#	c #040304",
"'#	c #020203",
")#	c #0A0B0F",
"!#	c #0D0E12",
"~#	c #0E0F14",
"{#	c #030304",
"]#	c #080405",
"^#	c #1B1214",
"/#	c #2E3427",
"(#	c #333B2B",
"_#	c #31392A",
":#	c #08090E",
"<#	c #0C0D11",
"[#	c #0D0E13",
"}#	c #0B0C12",
"|#	c #333B2C",
"1#	c #343C2D",
"2#	c #262C23",
"3#	c #020304",
"4#	c #140A0A",
"5#	c #586348",
"6#	c #5E6D4F",
"7#	c #04030C",
"8#	c #03010B",
"9#	c #606F50",
"0#	c #47523B",
"a#	c #1F2318",
"b#	c #484E3A",
"c#	c #566247",
"d#	c #5A684B",
"e#	c #000003",
"f#	c #040507",
"g#	c #000002",
"h#	c #4F5C42",
"i#	c #414C37",
"j#	c #191F15",
"k#	c #252D1F",
"l#	c #546247",
"m#	c #525F45",
"n#	c #232A1C",
"o#	c #4F5C43",
"p#	c #505C45",
"q#	c #20271A",
"                                                                                                                                ",
"                                                                                                                                ",
"                                                                                                                                ",
"                                                                                                                                ",
"                                                                                                                                ",
"                                                                                                                                ",
"                                                                                                                                ",
"                                                                                                                                ",
"                                                                                                                                ",
"                                                                                                                                ",
"                                                                                                                                ",
"                                                                                                                                ",
"                                                                                                                                ",
"                                            . . . . . . . . . . . . . . . . . . .                                               ",
"                                            . . . . . . . . . . . . . . . . . . .                                               ",
"                                            + @ # # $ + % # # & * * * * = - - ; #                                               ",
"                                      . . > , ' ) ) ! , ~ { ) ] ^ ^ ^ ^ / ( ( _ ) : . .                                         ",
"                                      < < [ } | ) ) 1 2 3 4 5 6 7 7 ^ ^ 8 9 9 0 a b < <                                         ",
"                                . . c ) ) ) ) ) ) ) d ^ e f , , , f g ^ ^ ^ ^ h i j ) ) k .                                     ",
"                                . . l ) ) ) ) ) ) ) d ^ e m , , , f g ^ ^ ^ ^ h i j ) ) n .                                     ",
"                                . . l ) ) o p p q q r ^ g s t t t t u v v v v w x y z z A .                                     ",
"                                . . l ) ) B C D E E F ^ ^ ^ ^ ^ ^ G H E E E E I ( J ^ ^ K .                                     ",
"                                . . l ) ) B C L M M F ^ ^ ^ ^ ^ ^ G N M E E E I ( J ^ ^ K .                                     ",
"                                . . l ) ) B C O P P Q R S G ^ q R T U P V C C W ( J ^ ^ K .                                     ",
"                                . . l ) ) B C X Y Y Z E ` G ^  .E ..+.Y @.C C W ( J ^ ^ K .                                     ",
"                                . . #.$.$.%.&.*.=.=.-.;.>.G ^ q ;.,.'.=.).!.!.~.J 8 ^ ^ K .                                     ",
"                                . . {., , ].) ^.C C C C /.G ^ p C C C C (.^ ^ ^ ^ ^ ^ ^ K .                                     ",
"                                . . _., :.].) * <.<.<.<.[.G ^ p <.<.<.<.(.^ ^ ^ ^ ^ ^ ^ }..                                     ",
"                                . . |.1.2.3.) 4.5.5.5.5.6.^ ^ 7.5.5.5.5.e ^ ^ ^ ^ 8.9.9.0..                                     ",
"                                . . a.i b.c.) d.^ ^ ^ ^ ^ ^ ^ ^ ^ ^ ^ ^ ^ ^ ^ ^ ^ e., , f..                                     ",
"                                . . g.h.i.j.k.3.7.7.l.m.m.m.m.m.m.n.o.o.p.^ ^ q.r.s.t.t.u..                                     ",
"                                . . {., , v.( w.) ) x.y.y.y.y.y.y.z.i i A.^ ^ B., C.^ ^ K .                                     ",
"      D.                        . . {., , v.( w.) ) x.y.y.y.y.y.y.z.i i A.^ ^ B., C.^ ^ K .                                     ",
"      E.                              F.G.H.k._ ) ) I.J.J.J.J.J.J.K.L.M.N.O.O.P.r.Q.R.R.                                        ",
"            . . . . . . .       E.    . . S.) ) ) ) ) ) ) ) ) ) ) n.T.( U.) ) V.^ W.. .                                         ",
"            . . X.Y.Z.`.`.                 +.+++@+@+#+$+%+) ) &+*+=+-+;+>+@+@+,+'+)+                                            ",
"            . . !+~+Y {+{+]+. . E.        E.. ^+/+/+(+_+:+<+) [+}+|+1+2+3+/+/+4+.                                               ",
"            . . 5+Y U 6+6+7+. . E.          . 8+9+9+0+a+b+<+) c+d+e+f+2+g+9+9+h+.                                               ",
"            . . i+j+k+l+l+m+n+o+            p+q+9+9+r+s+t+u+v+w+x+y+z+A+B+C+C+D+p+                                              ",
"            . . E+6+F+G+G+H+I+J+. . . . . ,.9+9+9+9+K+L+M+}+d+N+O+P+Q+d+R+2+2+S+9+p+. .                                         ",
"            . . E+6+T+U+U+V+J+W+. . . . . X+9+9+9+9+Y+Z+`+ @.@+@@@#@$@}+%@2+2+&@9+*@. .                                         ",
"            . . E+6+l+. =@=@=@=@. . l ) ) -@. 8+9+9+0+a+;@>@,@'@d+}+)@^ !@2+2+~@. {@^ ^ ]@^@                                    ",
"            . . E+6+l+. . . . . . . l ) ) -@. 8+9+9+0+a+;@/@L+(@d+}+_@^ !@2+2+~@. {@^ ^ K .                                     ",
"                :@<@[@. . F.}@|@1@1@2@3@4@5@. 8+9+9+0+a+;@/@L+6@7@8@9@0@a@2+2+~@. b@c@c@d@.                                     ",
"                  . . . . e@, f@) ) g@. . . . 8+9+9+0+a+;@/@L+h@a+i@j@9+g+2+2+~@. k@( ( l@.                                     ",
"                  . . . . m@, f@) ) g@. . . . 8+9+9+0+a+;@n@o@h@a+p@q@r@3+2+2+~@. k@( ( l@.                                     ",
"                            s@t@< <         . 8+9+9+u@v@w@x@y@z@v@A@B@y@C@2+2+~@. D@E@E@F@.                                     ",
"                            . . . .         . 8+9+9+G@) H@_+a+I@) <+J@a+K@2+2+~@. L@, , f..                                     ",
"                                            . M@N@N@O@P@Q@R@S@T@P@U@V@W@X@Y@Y@Z@. `@+ +                                         ",
"                                            .  #.#.#.#.#+#@#@###.#.#.#.#.#.#.#$#. . . .                                         ",
"                                            .  #.#.#.#.#+#@#@###.#.#.#.#.#.#.#$#. . . .                                         ",
"                                            . %#&#&#&#&#*#=#-#;#>#>#>#>#>#>#>#,#.                                               ",
"                                            . '#)#)#)#)#)#)#)#!#~#~#~#~#~#~#~#{#.                                               ",
"                                            . ]#^#^#/#(#_#:#)#<#[#}#|#1#2#[#[#3#.                                               ",
"                                            . 4#( ( 5#) 6#7#)#)#)#8#9#) 0#)#)#'#.                                               ",
"                                            . 4#( ( 5#) 6#7#)#)#)#8#9#) 0#)#)#'#.                                               ",
"                                            . a#b#b#c#d#* e#f#f#f#g#W.d#h#i#i#j#.                                               ",
"                                            . k#l#l#l#l#m#. . . . . u l#l#l#l#n#.                                               ",
"                                            . n#o#o#o#o#p#          o#o#o#o#o#q#.                                               ",
"                                            . . . . . .               . . . . . .                                               ",
"                                            . . . . . .               . . . . . .                                               ",
"                                                                                                                                ",
"                                                                                                                                ",
"                                                                                                                                "};
